<mxfile host="app.diagrams.net" modified="2022-07-31T18:01:26.164Z" agent="5.0 (Windows NT 10.0; WOW64) AppleWebKit/537.36 (KHTML, like Gecko) Chrome/86.0.4240.198 Safari/537.36" etag="6hVggPXk67zaT69WkuK4" version="20.2.2" type="github">
  <diagram id="prtHgNgQTEPvFCAcTncT" name="Page-1">
    <mxGraphModel dx="1422" dy="762" grid="1" gridSize="10" guides="1" tooltips="1" connect="1" arrows="1" fold="1" page="1" pageScale="1" pageWidth="827" pageHeight="1169" math="0" shadow="0">
      <root>
        <mxCell id="0" />
        <mxCell id="1" parent="0" />
        <mxCell id="Ap9W5Za4SAKhhzic7Crx-1" value="xtl" style="rounded=0;whiteSpace=wrap;html=1;" vertex="1" parent="1">
          <mxGeometry x="284" y="510" width="236" height="60" as="geometry" />
        </mxCell>
        <mxCell id="Ap9W5Za4SAKhhzic7Crx-2" value="" style="rounded=0;whiteSpace=wrap;html=1;" vertex="1" parent="1">
          <mxGeometry x="284" y="390" width="236" height="100" as="geometry" />
        </mxCell>
        <mxCell id="Ap9W5Za4SAKhhzic7Crx-3" value="多维度事实宽表" style="rounded=0;whiteSpace=wrap;html=1;" vertex="1" parent="1">
          <mxGeometry x="284" y="310" width="236" height="60" as="geometry" />
        </mxCell>
        <mxCell id="Ap9W5Za4SAKhhzic7Crx-4" value="" style="rounded=0;whiteSpace=wrap;html=1;" vertex="1" parent="1">
          <mxGeometry x="282" y="195" width="220" height="60" as="geometry" />
        </mxCell>
        <mxCell id="Ap9W5Za4SAKhhzic7Crx-5" value="基础数据层" style="text;html=1;strokeColor=none;fillColor=none;align=center;verticalAlign=middle;whiteSpace=wrap;rounded=0;" vertex="1" parent="1">
          <mxGeometry x="200" y="525" width="84" height="30" as="geometry" />
        </mxCell>
        <mxCell id="Ap9W5Za4SAKhhzic7Crx-6" value="基础事实层" style="text;html=1;strokeColor=none;fillColor=none;align=center;verticalAlign=middle;whiteSpace=wrap;rounded=0;" vertex="1" parent="1">
          <mxGeometry x="200" y="430" width="70" height="30" as="geometry" />
        </mxCell>
        <mxCell id="Ap9W5Za4SAKhhzic7Crx-7" value="宽表层" style="text;html=1;strokeColor=none;fillColor=none;align=center;verticalAlign=middle;whiteSpace=wrap;rounded=0;" vertex="1" parent="1">
          <mxGeometry x="200" y="325" width="60" height="30" as="geometry" />
        </mxCell>
        <mxCell id="Ap9W5Za4SAKhhzic7Crx-8" value="应用层" style="text;html=1;strokeColor=none;fillColor=none;align=center;verticalAlign=middle;whiteSpace=wrap;rounded=0;" vertex="1" parent="1">
          <mxGeometry x="200" y="210" width="60" height="30" as="geometry" />
        </mxCell>
        <mxCell id="Ap9W5Za4SAKhhzic7Crx-10" value="积累事实" style="rounded=0;whiteSpace=wrap;html=1;" vertex="1" parent="1">
          <mxGeometry x="300" y="460" width="60" height="20" as="geometry" />
        </mxCell>
        <mxCell id="Ap9W5Za4SAKhhzic7Crx-14" value="周期事实" style="rounded=0;whiteSpace=wrap;html=1;" vertex="1" parent="1">
          <mxGeometry x="300" y="430" width="60" height="20" as="geometry" />
        </mxCell>
        <mxCell id="Ap9W5Za4SAKhhzic7Crx-15" value="事务事实" style="rounded=0;whiteSpace=wrap;html=1;" vertex="1" parent="1">
          <mxGeometry x="300" y="400" width="60" height="20" as="geometry" />
        </mxCell>
        <mxCell id="Ap9W5Za4SAKhhzic7Crx-17" value="专题" style="rounded=0;whiteSpace=wrap;html=1;" vertex="1" parent="1">
          <mxGeometry x="410" y="215" width="60" height="20" as="geometry" />
        </mxCell>
        <mxCell id="Ap9W5Za4SAKhhzic7Crx-18" value="业务" style="rounded=0;whiteSpace=wrap;html=1;" vertex="1" parent="1">
          <mxGeometry x="320" y="215" width="60" height="20" as="geometry" />
        </mxCell>
        <mxCell id="Ap9W5Za4SAKhhzic7Crx-21" value="维度" style="rounded=0;whiteSpace=wrap;html=1;" vertex="1" parent="1">
          <mxGeometry x="420" y="410" width="60" height="20" as="geometry" />
        </mxCell>
        <mxCell id="Ap9W5Za4SAKhhzic7Crx-22" value="事实" style="rounded=0;whiteSpace=wrap;html=1;" vertex="1" parent="1">
          <mxGeometry x="420" y="450" width="60" height="20" as="geometry" />
        </mxCell>
        <mxCell id="Ap9W5Za4SAKhhzic7Crx-26" value="" style="strokeWidth=2;html=1;shape=mxgraph.flowchart.annotation_2;align=left;labelPosition=right;pointerEvents=1;" vertex="1" parent="1">
          <mxGeometry x="364" y="420" width="56" height="40" as="geometry" />
        </mxCell>
      </root>
    </mxGraphModel>
  </diagram>
</mxfile>
